<?xml version="1.0" encoding="UTF-8"?>
<svg width="120px" height="40px" viewBox="0 0 120 40" version="1.1" xmlns="http://www.w3.org/2000/svg" xmlns:xlink="http://www.w3.org/1999/xlink">
    <!-- Generator: Sketch 53.2 (72643) - https://sketchapp.com -->
    <title>logo</title>
    <desc>Created with Sketch.</desc>
    <g id="logo" stroke="none" stroke-width="1" fill="none" fill-rule="evenodd">
        <g id="logo/foyer/horizontal" transform="translate(0.000000, 7.000000)" fill="#004C92">
            <path d="M6.70928769,15.6032782 L31.7382331,15.6032782 C31.9060718,14.6478307 31.9936277,13.6802351 32,12.7104446 C31.9922988,11.744024 31.9047507,10.7798504 31.7382331,9.82758621 L9.86055877,9.82758621 L6.70928769,15.6032782 Z M29.7749811,19.2143327 L4.2929776,19.2143327 L3.03448276,21.6682536 C3.80701357,22.8935499 4.73778456,24.0136083 5.80317141,25 L25.6068462,25 C27.3936118,23.3891695 28.8143859,21.4204343 29.7749811,19.224308 L29.7749811,19.2143327 Z M7.36506435,6.37983598 L30.4672424,6.37983598 C29.4353003,4.28713914 27.9496994,2.4495087 26.1180063,1 L5.80817844,1 C0.802023839,4.97010952 -1.21781365,11.6162529 0.735743685,17.6905154 L7.36506435,6.37983598 Z" id="picto" fill-rule="nonzero"></path>
            <path d="M110.776007,8.84046871 C111.564657,7.90838325 113.260916,6.96014296 115.273907,6.94790444 L115.278802,6.94790444 C115.659665,6.94251949 115.975908,6.96748607 116.27257,7.00224346 C116.100741,7.54808131 115.249919,10.2532831 115.082497,10.7883511 C114.661002,10.6057524 114.208177,10.5181246 113.684858,10.5181246 C111.969507,10.5181246 110.234086,11.8007212 110.234086,14.2606631 L110.234086,25.1906379 L106.261953,25.1906379 L106.261953,7.25680461 L110.234086,7.25680461 L110.234086,9.48519378 L110.776007,8.84046871 Z M103.6504,17.3166208 L91.9836664,17.3166208 L91.9836664,17.6240524 C91.9836664,20.3326809 93.7034229,22.0818098 96.3714196,22.0818098 C98.4206368,22.0818098 99.4829401,21.5080681 100.594197,20.4487021 C100.924637,20.7762048 102.622854,22.427915 102.979729,22.7759785 C101.256546,24.4384586 99.5617562,25.4028538 96.3356831,25.4028538 C90.8180701,25.4028538 88.0218137,22.2976972 88.0218137,16.1603257 C88.0218137,10.477248 91.0163341,6.94765967 95.8343934,6.94765967 C100.581469,6.94765967 103.6504,10.3250008 103.6504,15.5474208 L103.6504,17.3166208 Z M91.9694698,14.7480009 L99.6993171,14.7480009 L99.6846309,14.4263726 C99.6498735,13.5652706 99.5367896,13.0336294 99.2362116,12.3169418 C98.6252648,10.9643409 97.3867269,10.1982098 95.8343934,10.1982098 C94.2820599,10.1982098 93.0449906,10.9682573 92.4418765,12.3110674 C92.1368927,13.0336294 92.0223402,13.5633124 91.9836664,14.4263726 L91.9694698,14.7480009 Z M87.8417117,7.25714729 C87.5465187,8.05167181 80.0168935,28.3940452 80.0154249,28.4013883 C79.6071479,29.4725033 79.1978919,30.1715674 78.6926859,30.6767734 C77.7816507,31.5824237 76.5426233,32.0166462 74.9007038,31.9995123 L73.3841068,31.9995123 L73.3841068,28.4591541 L74.1482798,28.4591541 C75.6418684,28.4591541 76.2777818,28.0038813 76.7668329,26.5793179 L77.5892613,24.1942757 C77.5892613,24.1942757 71.6256767,8.0443287 71.3344,7.25714729 L75.34178,7.25714729 C75.486684,7.64339488 79.6654033,19.1407473 79.6654033,19.1407473 C79.6654033,19.1407473 83.6747414,7.65416478 83.8162187,7.25714729 L87.8417117,7.25714729 Z M68.6788376,9.13903957 C70.3736274,10.9097082 70.7040674,13.0563441 70.7040674,16.1605215 C70.7040674,19.8027042 70.175853,21.6497412 68.6788376,23.2113759 C67.9092797,24.030867 66.1577031,25.4030496 63.1049274,25.4030496 C60.2376877,25.4030496 58.5110777,24.2124866 57.5662642,23.2113759 C56.0712069,21.6497412 55.5395658,19.8027042 55.5395658,16.1605215 C55.5395658,12.5393891 56.0712069,10.6996953 57.5662642,9.14246635 C58.5110777,8.1393975 60.2362191,6.94785549 63.1049274,6.94785549 C66.1611299,6.94785549 67.9092797,8.32150663 68.6788376,9.13903957 Z M65.5080826,20.9217942 C66.5811558,19.8433361 66.6697627,18.0545544 66.6697627,16.1605215 C66.6697627,14.2836226 66.5811558,12.5061004 65.5080826,11.4291109 C64.9005626,10.8255072 64.0918414,10.5180757 63.1049274,10.5180757 C62.124867,10.5180757 61.355309,10.8181641 60.7424041,11.4291109 C59.663946,12.5061004 59.5758287,14.2836226 59.5758287,16.1605215 C59.5758287,18.0545544 59.663946,19.8433361 60.7424041,20.9217942 C61.355309,21.5346991 62.1287833,21.8328294 63.1049274,21.8328294 C64.0918414,21.8328294 64.8986045,21.5283351 65.5080826,20.9217942 Z M56.302417,0.293577982 L56.302417,4.14968992 L47.1019895,4.14968992 L47.1019895,10.8642299 L53.2055827,10.8642299 L53.2055827,14.7178941 L47.1019895,14.7178941 L47.1019895,25.1906379 L42.7431193,25.1906379 L42.7431193,0.293577982 L56.302417,0.293577982 Z" id="Foyer"></path>
        </g>
    </g>
</svg>