<svg width="200" height="151" viewBox="0 0 200 151" fill="none" xmlns="http://www.w3.org/2000/svg"><path d="M112.791 27.9869C115.107 29.9297 117.013 32.3582 118.32 35.123H88.3566L79.7634 50.1049C79.1656 48.1621 78.8294 46.1073 78.8294 43.9777 78.8294 37.5515 81.7809 31.7978 86.3764 27.9869H112.791z" fill="#004c92"/><path d="M87.3852 47.5644H119.964C120.151 46.4062 120.301 45.2106 120.301 44.015 120.301 42.7821 120.151 41.6239 119.964 40.4657H91.4949L87.3852 47.5644z" fill="#004c92"/><path d="M82.6029 55.896C83.6864 57.4278 84.9193 58.8102 86.339 60.0057H112.754C115.107 58.0629 117.013 55.6344 118.32 52.8697H84.3215L82.6029 55.896z" fill="#004c92"/><path d="M64.2584 81.8249V75.9965C63.3991 75.9965 44.6436 75.9965 43.7843 75.9591V113.582H50.3599V97.7782H59.5882V91.9498H50.3599V81.8249H64.2584z" fill="#004c92"/><path d="M146.566 88.9236C147.761 87.5038 150.302 86.0841 153.366 86.0467 153.926 86.0467 154.412 86.0841 154.86 86.1214 154.765 86.419 154.538 87.1474 154.275 87.9929 153.811 89.4831 153.234 91.3372 153.067 91.8377 152.432 91.5762 151.759 91.4268 150.937 91.4268 148.359 91.4268 145.706 93.3696 145.706 97.0684V113.582H139.691V86.4951H145.706V89.8576L146.566 88.9236z" fill="#004c92"/><path d="M109.36 93.4795 109.352 93.5027C105.87 102.915 100.115 118.476 100.088 118.476 99.4529 120.083 98.8551 121.167 98.0706 121.914 96.6882 123.296 94.8201 123.931 92.3542 123.894H90.0752V118.551H91.2334C93.4751 118.551 94.4465 117.841 95.1937 115.712L96.4266 112.125C96.4266 112.125 87.4225 87.728 86.9742 86.5324H93.0268C93.2509 87.1302 99.565 104.503 99.565 104.503 99.565 104.503 105.618 87.1302 105.842 86.5324H111.932C111.803 86.8768 110.768 89.6727 109.36 93.4795z" fill="#004c92"/><path fill-rule="evenodd" clip-rule="evenodd" d="M82.9391 89.3719C81.7809 88.139 79.1283 86.0467 74.5328 86.0467 70.1989 86.0467 67.5836 87.8401 66.1638 89.3719 63.9222 91.7257 63.1002 94.4904 63.1002 99.9825 63.1002 105.475 63.8848 108.277 66.1638 110.631 67.5836 112.125 70.1989 113.956 74.5328 113.956 79.1283 113.956 81.7809 111.863 82.9391 110.631 85.1808 108.277 86.0028 105.475 86.0028 99.9825 86.0028 95.275 85.5171 92.0246 82.9391 89.3719zM78.1569 107.156C77.2228 108.053 76.0273 108.538 74.5328 108.538 73.0757 108.538 71.8801 108.09 70.9461 107.156 69.3022 105.512 69.1901 102.822 69.1901 99.9452 69.1901 97.1057 69.3396 94.4157 70.9461 92.8092 71.8801 91.8751 73.0384 91.4268 74.5328 91.4268 76.0273 91.4268 77.2602 91.8751 78.1569 92.8092 79.7634 94.4531 79.9129 97.1057 79.9129 99.9452 79.9129 102.822 79.8008 105.549 78.1569 107.156z" fill="#004c92"/><path fill-rule="evenodd" clip-rule="evenodd" d="M135.806 99.0112V101.701C134.897 101.701 118.171 101.701 118.208 101.739V102.187C118.208 106.259 120.786 108.912 124.821 108.912 127.922 108.912 129.529 108.053 131.21 106.446 131.449 106.684 132.191 107.409 132.946 108.146L132.949 108.148C133.732 108.913 134.531 109.692 134.797 109.958 132.182 112.461 129.604 113.918 124.747 113.918 116.415 113.918 112.193 109.211 112.193 99.9452 112.193 91.352 116.714 86.0094 123.999 86.0094 131.173 86.0094 135.806 91.1279 135.806 99.0112zM118.171 97.3672 118.134 97.853H129.828L129.79 97.3672C129.753 96.0596 129.566 95.275 129.118 94.1915 128.184 92.1366 126.316 90.9784 123.962 90.9784 121.608 90.9784 119.74 92.1366 118.844 94.1542 118.395 95.275 118.246 96.0596 118.171 97.3672z" fill="#004c92"/></svg>