<svg xmlns="http://www.w3.org/2000/svg" xmlns:xlink="http://www.w3.org/1999/xlink" id="Calque_2" data-name="Calque 2" viewBox="0 0 550.82 177.24"><defs><style>      .cls-1 {        fill: #3cbac6;      }      .cls-2 {        fill: url(#linear-gradient-4);      }      .cls-3 {        fill: url(#linear-gradient-3);      }      .cls-4 {        fill: url(#linear-gradient-2);      }      .cls-5 {        fill: url(#linear-gradient);      }      .cls-6 {        fill: #fff;      }    </style><linearGradient id="linear-gradient" x1="77.86" y1="177.49" x2="63.81" y2="10.35" gradientUnits="userSpaceOnUse"><stop offset="0" stop-color="#3cbac6"></stop><stop offset=".14" stop-color="#3ab4c2"></stop><stop offset=".31" stop-color="#37a5b8"></stop><stop offset=".5" stop-color="#308ca8"></stop><stop offset=".7" stop-color="#286a91"></stop><stop offset=".91" stop-color="#1d3e73"></stop><stop offset="1" stop-color="#182865"></stop></linearGradient><linearGradient id="linear-gradient-2" x1="228.85" y1="438.83" x2="64.58" y2="382.73" gradientTransform="translate(240.76 483.32) rotate(-180)" xlink:href="#linear-gradient"></linearGradient><linearGradient id="linear-gradient-3" x1="171.51" y1="55.1" x2="31.99" y2="148.73" xlink:href="#linear-gradient"></linearGradient><linearGradient id="linear-gradient-4" x1="74.07" y1="438.62" x2="76.36" y2="438.62" gradientTransform="translate(240.76 483.32) rotate(-180)" xlink:href="#linear-gradient"></linearGradient></defs><g id="Calque_1-2" data-name="Calque 1"><g><g><path class="cls-5" d="M86.8,177.22c-30.83-.78-56.7-21.71-64.87-50.11-1.77-6.12-2.72-12.61-2.72-19.3,0-18.69,7.37-35.65,19.39-48.13,12.63-13.11,30.39-21.29,50.05-21.29,19.66.02,37.4,8.17,50.03,21.31-4.79-16.62-15.78-31.47-31.95-40.8-5.81-3.36-11.89-5.77-18.08-7.29-28.51-7.07-59.34,4.65-75.52,30.62-.42.68-.84,1.35-1.25,2.05-.4.7-.78,1.39-1.16,2.09C3.89,58.94,0,73.32,0,88.61c0,48.34,38.71,87.64,86.8,88.61Z"></path><path class="cls-4" d="M88.63,11.61c6.19,1.52,12.27,3.93,18.08,7.29,16.18,9.33,27.16,24.18,31.95,40.8,5.09,17.53,3.29,37-6.55,54.04-9.84,17.02-25.81,28.32-43.52,32.67,16.81,4.16,35.18,2.09,51.36-7.26,5.81-3.34,10.94-7.41,15.37-12.02,20.89-21.71,25.87-55.41,10.05-82.8-.32-.57-.65-1.12-.97-1.67-.11-.13-.19-.25-.25-.4C148.57,16.92,120.56,0,88.61,0S28.68,16.89,13.11,42.24C29.29,16.26,60.12,4.54,88.63,11.61Z"></path><g><path class="cls-3" d="M86.8,177.22c.59.02,1.2.02,1.8.02s1.22,0,1.84-.02c48.11-.97,86.82-40.27,86.82-88.61,0-15.14-3.83-29.4-10.55-41.88,14.19,26.94,8.9,59.32-11.38,80.4-4.43,4.6-9.57,8.68-15.37,12.02-16.18,9.36-34.55,11.42-51.36,7.26-17.7-4.37-33.64-15.67-43.46-32.69-9.84-17.04-11.64-36.53-6.55-54.04-12.02,12.48-19.39,29.44-19.39,48.13,0,6.69.95,13.18,2.72,19.3,8.17,28.4,34.04,49.33,64.87,50.11Z"></path><path class="cls-2" d="M164.4,42.66c.81,1.33,1.56,2.7,2.29,4.07-.42-.81-.86-1.61-1.32-2.41-.32-.57-.65-1.12-.97-1.67Z"></path></g></g><g><g><g><path class="cls-6" d="M222.63,85.19c0,.63.06,1.08.17,1.36.12.28.57.42,1.36.42h28.14c1.26,0,1.89.67,1.89,2.01v7.8c0,1.41-.59,2.12-1.78,2.12h-41.02c-1.42,0-2.13-.67-2.13-2.01v-48.58s0-11.15,0-11.15c0-.53.21-1.03.58-1.41l10.67-10.67c.78-.78,2.12-.23,2.12.88v59.22Z"></path><path class="cls-6" d="M309.73,98.89h-9.25c-1.09,0-1.64-.55-1.64-1.65v-1.3c0-.31-.16-.47-.47-.47s-.59.12-.83.36c-1.18,1.1-2.7,2.03-4.55,2.78-1.85.75-3.76,1.13-5.73,1.13-3.08,0-5.83-.5-8.28-1.48-2.44-.99-4.51-2.37-6.2-4.14-1.7-1.77-3-3.9-3.9-6.38s-1.36-5.22-1.36-8.21v-31.21c0-1.26.58-1.89,1.75-1.89h9.14c1.33,0,1.99.59,1.99,1.77v31.21c0,2.52.83,4.67,2.5,6.44,1.66,1.77,3.88,2.66,6.66,2.66s5-.87,6.67-2.6c1.66-1.73,2.5-3.9,2.5-6.5v-31.08c0-1.26.62-1.89,1.87-1.89h9.02c1.33,0,1.99.59,1.99,1.77v48.82c0,1.26-.63,1.89-1.88,1.89Z"></path></g><path class="cls-6" d="M373.54,96.88c.31.47.29.93-.06,1.36-.35.43-.96.65-1.83.65h-8.39c-.87,0-1.58-.16-2.13-.47-.55-.31-1.14-.98-1.77-2.01l-8.15-13.94c-.4-.63-.75-.95-1.06-.95s-.68.35-1.07,1.06l-8.27,14.42c-.55.87-1.11,1.4-1.66,1.59-.55.2-1.22.29-2.01.29h-8.28c-.71,0-1.22-.13-1.54-.41-.32-.28-.47-.61-.47-1.01,0-.47.12-.83.36-1.06l14.54-22.69c.55-.87.8-1.59.77-2.19-.04-.59-.3-1.24-.77-1.95l-13.12-20.21c-.47-.78-.57-1.44-.29-1.95.28-.51.85-.77,1.71-.77h8.75c.94,0,1.61.08,2.01.24.39.16.87.67,1.41,1.54l7.21,12.65c.39.55.67.83.83.83.24,0,.55-.31.95-.95l7.09-12.53c.55-.87,1.04-1.37,1.48-1.54.43-.16,1.08-.24,1.95-.24h8.74c1.34,0,2.01.43,2.01,1.3,0,.16-.04.4-.12.71-.08.32-.2.55-.36.71l-13.12,20.1c-.63.95-.92,1.67-.88,2.19.03.51.29,1.2.77,2.07l14.77,23.17Z"></path></g><g><path class="cls-6" d="M435.22,54.83c0,.63-.1,1.06-.3,1.3s-.69.32-1.48.24c-.63-.08-1.54-.1-2.72-.06-1.18.04-2.2.14-3.07.29-.32.08-.57.24-.77.47-.2.24-.22.55-.06.95,1.03,2.29,1.54,4.65,1.54,7.09,0,2.84-.59,5.48-1.78,7.92-1.18,2.44-2.78,4.55-4.78,6.32s-4.37,3.16-7.09,4.14c-2.72.99-5.62,1.48-8.69,1.48h-2.84c-1.58.08-2.93.71-4.07,1.89s-1.95,2.48-2.42,3.9c-.16.39-.14.67.06.83s.42.2.65.12c2.05-.39,4.21-.69,6.5-.88,2.29-.2,4.02-.29,5.2-.29,3.08,0,6.11.28,9.1.83,3,.55,5.63,1.46,7.92,2.72,2.28,1.26,4.13,2.91,5.55,4.96,1.42,2.05,2.13,4.61,2.13,7.68,0,1.58-.32,3.15-.95,4.73-.63,1.58-1.46,3.05-2.48,4.43-.81,1.08-2.15,2.56-3.46,3.63-.56.46-1.39.42-1.9-.1l-6.15-6.14c-.54-.54-.54-1.4-.03-1.97.78-.86,1.3-1.68,1.56-2.17.36-.67.53-1.36.53-2.07,0-1.18-.38-2.17-1.12-2.95-.75-.79-1.71-1.42-2.9-1.89s-2.44-.78-3.78-.95c-1.34-.16-2.6-.24-3.79-.24-1.26,0-2.68.06-4.25.18-1.58.12-3.21.28-4.91.47s-3.39.39-5.08.59c-1.7.2-3.26.42-4.67.65-1.11.16-1.92.1-2.42-.18-.51-.28-.97-.65-1.36-1.12-.87-1.11-1.48-2.35-1.83-3.72-.36-1.38-.53-3.09-.53-5.14,0-1.81.59-3.79,1.77-5.91,1.18-2.13,2.76-3.82,4.73-5.08.87-.55.95-1.14.24-1.77-1.89-1.58-3.45-3.62-4.67-6.15s-1.83-5.44-1.83-8.75c0-2.75.59-5.33,1.77-7.74,1.18-2.4,2.78-4.49,4.78-6.26,2.01-1.78,4.29-3.15,6.86-4.14,2.56-.99,5.26-1.48,8.1-1.48,5.12,0,9.69,1.34,13.71,4.02.78.55,1.49.55,2.12,0,3.62-2.59,7.39-3.9,11.33-3.9,1.12,0,2.03.89,2.03,2.01v7.21ZM415.47,65.7c0-2.37-.81-4.42-2.42-6.15-1.62-1.73-3.77-2.6-6.45-2.6-2.91,0-5.22.89-6.91,2.66-1.69,1.77-2.54,3.8-2.54,6.09s.78,4.28,2.37,5.97c1.58,1.7,3.74,2.54,6.5,2.54,3.07,0,5.42-.84,7.04-2.54,1.61-1.69,2.42-3.68,2.42-5.97Z"></path><path class="cls-6" d="M488.76,97.15c0,1.1-.51,1.65-1.54,1.65h-9.22c-.87,0-1.3-.43-1.3-1.3v-.95c0-1.18-.55-1.34-1.66-.47-1.1.87-2.52,1.66-4.25,2.37-1.74.71-3.87,1.06-6.38,1.06-6.07,0-10.84-1.62-14.3-4.85-3.47-3.23-5.21-7.72-5.21-13.47s1.78-9.97,5.32-13.36c3.54-3.38,8.51-5.08,14.9-5.08,3.23,0,6.26.83,9.1,2.48.39.24.77.33,1.12.29.36-.04.53-.38.53-1v-1.42c0-2.36-.71-4.14-2.12-5.32-1.42-1.18-3.75-1.78-6.98-1.78-.87,0-1.83.08-2.89.24-1.07.16-2.17.36-3.31.59-1.14.24-2.27.51-3.37.83-1.1.32-2.05.63-2.83.95-1.34.55-2.21.2-2.6-1.06l-2.12-6.03c-.24-.55-.24-1.04,0-1.48s.55-.73.95-.88c2.68-1.26,5.49-2.2,8.45-2.84,2.95-.63,5.93-.95,8.92-.95,3.78,0,6.99.46,9.63,1.36s4.79,2.2,6.44,3.9c1.66,1.69,2.86,3.76,3.61,6.2.75,2.44,1.13,5.16,1.13,8.15v32.15ZM474.92,80.95c-.08-2.37-.88-4.39-2.42-6.09-1.54-1.69-3.73-2.54-6.56-2.54-3,0-5.26.83-6.8,2.48-1.54,1.66-2.3,3.71-2.3,6.15s.77,4.51,2.3,6.2c1.54,1.7,3.76,2.54,6.68,2.54,3.15,0,5.46-.88,6.92-2.66,1.45-1.77,2.18-3.8,2.18-6.08Z"></path><path class="cls-6" d="M549.63,80.36c0,2.68-.44,5.18-1.31,7.51-.87,2.33-2.13,4.37-3.79,6.15s-3.72,3.17-6.18,4.2c-2.45,1.02-5.26,1.54-8.42,1.54-2.14,0-4.03-.28-5.7-.83-1.66-.55-2.93-1.14-3.8-1.77-1.34-.87-2.01-.75-2.01.35v11.13c0,.53-.21,1.03-.58,1.41l-10.18,10.18c-.78.78-2.12.23-2.12-.88V48.21c0-1.18.62-1.77,1.87-1.77h8.78c1.17,0,1.75.55,1.75,1.65v.95c0,.24.1.47.29.71s.53.16,1-.24c1.34-.95,2.95-1.81,4.81-2.6,1.86-.79,4.09-1.18,6.71-1.18,3.16,0,5.93.51,8.3,1.54,2.37,1.03,4.35,2.44,5.93,4.25s2.75,3.96,3.5,6.44c.75,2.48,1.13,5.18,1.13,8.1v14.3ZM536.74,66.05c0-2.6-.77-4.77-2.32-6.5-1.55-1.73-3.83-2.6-6.84-2.6-2.7,0-4.92.87-6.66,2.6-1.74,1.73-2.58,3.86-2.5,6.38v13.35c0,2.52.81,4.69,2.44,6.5,1.63,1.82,3.83,2.72,6.61,2.72,3.33,0,5.71-.88,7.13-2.65,1.43-1.78,2.14-3.96,2.14-6.56v-13.24Z"></path></g><path class="cls-6" d="M549.63,80.36c0,2.68-.44,5.18-1.31,7.51-.87,2.33-2.13,4.37-3.79,6.15s-3.72,3.17-6.18,4.2c-2.45,1.02-5.26,1.54-8.42,1.54-2.14,0-4.03-.28-5.7-.83-1.66-.55-2.93-1.14-3.8-1.77-1.34-.87-2.01-.75-2.01.35v11.13c0,.53-.21,1.03-.58,1.41l-10.18,10.18c-.78.78-2.12.23-2.12-.88V48.21c0-1.18.62-1.77,1.87-1.77h8.78c1.17,0,1.75.55,1.75,1.65v.95c0,.24.1.47.29.71s.53.16,1-.24c1.34-.95,2.95-1.81,4.81-2.6,1.86-.79,4.09-1.18,6.71-1.18,3.16,0,5.93.51,8.3,1.54,2.37,1.03,4.35,2.44,5.93,4.25s2.75,3.96,3.5,6.44c.75,2.48,1.13,5.18,1.13,8.1v14.3ZM536.74,66.05c0-2.6-.77-4.77-2.32-6.5-1.55-1.73-3.83-2.6-6.84-2.6-2.7,0-4.92.87-6.66,2.6-1.74,1.73-2.58,3.86-2.5,6.38v13.35c0,2.52.81,4.69,2.44,6.5,1.63,1.82,3.83,2.72,6.61,2.72,3.33,0,5.71-.88,7.13-2.65,1.43-1.78,2.14-3.96,2.14-6.56v-13.24Z"></path></g><g><path class="cls-1" d="M221.74,142.3c0,1.72-.54,3.1-1.63,4.15-1.08,1.05-2.63,1.57-4.62,1.57h-5.91c-.2,0-.3-.08-.3-.23v-16.85c0-.15.1-.23.3-.23l6.4-.08c1.94,0,3.39.52,4.34,1.57.95,1.05,1.42,2.37,1.42,3.96v6.14ZM218.78,136.47c0-1.01-.28-1.8-.83-2.37-.55-.57-1.4-.85-2.54-.85h-2.88c-.25,0-.38.11-.38.34v11.48c0,.23.13.34.38.34h2.73c1.29,0,2.2-.31,2.73-.93s.8-1.42.8-2.41v-5.6Z"></path><path class="cls-1" d="M239.08,148.02c-.3,0-.48-.13-.53-.38l-1.02-3.37c-.08-.2-.2-.3-.38-.3h-5.04c-.23,0-.38.11-.45.34l-1.02,3.29c-.13.28-.28.42-.45.42h-1.86c-.28,0-.46-.08-.55-.23-.09-.15-.11-.33-.06-.53l5-16.06c.1-.33.27-.49.49-.49h2.73c.13,0,.25.03.36.09.12.06.2.21.25.44.83,2.65,1.67,5.33,2.5,8.03.83,2.7,1.68,5.38,2.54,8.03.05.18.06.34.02.49-.04.15-.23.23-.59.23h-1.93ZM233.59,137.53l-.95,3.48c-.05.23.04.34.27.34h3.26c.23,0,.33-.11.3-.34l-.87-3.33-.91-3.48c-.13-.13-.2-.12-.23.04l-.87,3.3Z"></path><path class="cls-1" d="M257.68,133.29h-3.94c-.3,0-.45.14-.45.42v13.97c0,.23-.1.34-.3.34h-2.31c-.23,0-.34-.1-.34-.3v-13.98c0-.3-.14-.45-.42-.45h-3.86c-.23,0-.34-.1-.34-.3v-1.89c0-.23.12-.34.34-.34h11.63c.23,0,.34.1.34.3v1.93c0,.2-.11.3-.34.3Z"></path><path class="cls-1" d="M273.09,148.02c-.3,0-.48-.13-.53-.38l-1.02-3.37c-.08-.2-.2-.3-.38-.3h-5.04c-.23,0-.38.11-.45.34l-1.02,3.29c-.13.28-.28.42-.45.42h-1.86c-.28,0-.46-.08-.55-.23-.09-.15-.11-.33-.06-.53l5-16.06c.1-.33.27-.49.49-.49h2.73c.13,0,.25.03.36.09.12.06.2.21.25.44.83,2.65,1.67,5.33,2.5,8.03.83,2.7,1.68,5.38,2.54,8.03.05.18.06.34.02.49-.04.15-.23.23-.59.23h-1.93ZM267.6,137.53l-.95,3.48c-.05.23.04.34.27.34h3.26c.23,0,.33-.11.3-.34l-.87-3.33-.91-3.48c-.13-.13-.2-.12-.23.04l-.87,3.3Z"></path><path class="cls-1" d="M305.81,135.92c0,.66-.11,1.3-.32,1.92-.22.62-.56,1.18-1.02,1.67-.47.5-1.06.89-1.78,1.2s-1.58.46-2.59.46h-2.99c-.28,0-.42.16-.42.49v6.02c0,.23-.11.34-.34.34h-2.27c-.23,0-.34-.1-.34-.3v-16.7c0-.23.11-.34.34-.34h5.98c1.08,0,2,.15,2.74.46.75.3,1.34.7,1.78,1.2.44.5.76,1.05.95,1.67s.29,1.26.29,1.92ZM297.1,133.29c-.3,0-.45.14-.45.42v4.4c0,.3.14.45.42.45h2.84c1.08,0,1.86-.26,2.31-.77.45-.51.68-1.13.68-1.86,0-.25-.04-.53-.11-.84-.08-.31-.23-.6-.45-.86-.23-.26-.54-.48-.93-.66-.39-.17-.89-.26-1.5-.26h-2.8Z"></path><path class="cls-1" d="M323.84,135.75c0,.96-.21,1.84-.62,2.63s-1.09,1.52-2.03,2.18c-.05.05-.06.13-.04.23.02.1.06.2.12.3l3.03,5.83c.2.43.23.72.09.87-.14.15-.31.23-.51.23h-1.67c-.33,0-.56-.06-.7-.19-.14-.13-.27-.3-.4-.53v.04l-2.88-5.79c-.1-.2-.21-.33-.32-.38-.11-.05-.23-.08-.36-.08h-2.57v6.32c0,.4-.15.61-.45.61h-2.05c-.3,0-.45-.2-.45-.61v-16.06c0-.18.05-.33.15-.45.1-.13.23-.19.38-.19h5.42c1.97,0,3.44.46,4.41,1.38.97.92,1.46,2.14,1.46,3.65ZM314.98,133.21v5.15c0,.2.15.3.45.3h3.45c.18,0,.33-.02.46-.06.13-.04.21-.08.27-.13.45-.33.78-.74.98-1.25.2-.51.3-.93.3-1.29,0-.3-.04-.62-.13-.95-.09-.33-.25-.62-.49-.89-.24-.27-.57-.48-1-.64s-1-.25-1.71-.25h-2.57Z"></path><path class="cls-1" d="M334.1,148.02h-2.27c-.23,0-.34-.1-.34-.3v-16.66c0-.23.11-.34.34-.34h2.27c.23,0,.34.1.34.3v16.66c0,.23-.11.34-.34.34Z"></path><path class="cls-1" d="M350.16,147.75c-.1.18-.24.27-.42.27h-2.69c-.2,0-.35-.1-.45-.3-.86-2.7-1.78-5.44-2.74-8.22-.97-2.78-1.9-5.52-2.78-8.22-.03-.13,0-.25.06-.38.06-.13.18-.19.36-.19h2.39c.23,0,.37.1.42.3l2.58,8.48,1.48,4.81c.02.08.06.11.11.11s.09-.04.11-.11l1.44-4.81,2.61-8.52c.02-.18.16-.27.42-.27h2.16c.28,0,.44.07.47.21.04.14.03.27-.02.4l-5.49,16.43Z"></path><path class="cls-1" d="M370.61,148.02c-.3,0-.48-.13-.53-.38l-1.02-3.37c-.08-.2-.2-.3-.38-.3h-5.04c-.23,0-.38.11-.45.34l-1.02,3.29c-.13.28-.28.42-.45.42h-1.86c-.28,0-.46-.08-.55-.23-.09-.15-.11-.33-.06-.53l5-16.06c.1-.33.27-.49.49-.49h2.73c.13,0,.25.03.36.09.12.06.2.21.25.44.83,2.65,1.67,5.33,2.5,8.03.83,2.7,1.68,5.38,2.54,8.03.05.18.06.34.02.49-.04.15-.23.23-.59.23h-1.93ZM365.12,137.53l-.95,3.48c-.05.23.04.34.27.34h3.26c.23,0,.33-.11.3-.34l-.87-3.33-.91-3.48c-.13-.13-.2-.12-.23.04l-.87,3.3Z"></path><path class="cls-1" d="M389.62,134.73c-.18.1-.42,0-.72-.3-.4-.4-.86-.73-1.38-.98s-1.14-.38-1.87-.38c-.68,0-1.25.12-1.71.36s-.81.53-1.08.87-.45.71-.57,1.12c-.12.4-.17.77-.17,1.1v5.79c0,.4.07.8.23,1.19.15.39.38.74.68,1.06.3.32.68.57,1.14.76.45.19,1,.29,1.63.29.78,0,1.46-.15,2.05-.46.58-.3,1.05-.64,1.4-1.02.15-.18.28-.27.38-.28.1-.01.2.02.3.09l1.44,1.25c.13.1.18.22.17.36-.01.14-.08.27-.21.4-.73.83-1.55,1.42-2.44,1.76-.9.34-1.91.51-3.05.51-.98,0-1.89-.14-2.71-.42s-1.52-.66-2.1-1.16c-.58-.49-1.03-1.06-1.34-1.72-.32-.66-.47-1.38-.47-2.16v-6.63c0-.76.15-1.47.44-2.14.29-.67.71-1.26,1.25-1.78.54-.52,1.2-.93,1.99-1.23.78-.3,1.67-.45,2.65-.45,1.04,0,2.02.16,2.95.47.93.32,1.79.89,2.58,1.72.17.2.23.35.17.45-.06.1-.16.21-.28.34l-1.33,1.21Z"></path><path class="cls-1" d="M404.84,141.39c-.05.08-.09.16-.11.24-.03.09-.04.21-.04.36v5.68c0,.23-.11.34-.34.34h-2.23c-.23,0-.34-.1-.34-.3v-5.72c0-.15-.01-.26-.04-.32-.02-.06-.06-.16-.11-.28l-4.81-10.15c-.05-.13-.06-.25-.02-.36.04-.12.13-.17.28-.17h2.27c.35,0,.58.13.68.38l2.99,7.35c.13.2.24.2.34,0l3.1-7.27c.18-.3.44-.45.8-.45h2.04c.38,0,.48.16.3.49l-4.77,10.19Z"></path><path class="cls-1" d="M439.72,135.92c0,.66-.11,1.3-.32,1.92-.22.62-.56,1.18-1.02,1.67-.47.5-1.06.89-1.78,1.2s-1.58.46-2.59.46h-2.99c-.28,0-.42.16-.42.49v6.02c0,.23-.11.34-.34.34h-2.27c-.23,0-.34-.1-.34-.3v-16.7c0-.23.11-.34.34-.34h5.98c1.08,0,2,.15,2.74.46.75.3,1.34.7,1.78,1.2.44.5.76,1.05.95,1.67s.29,1.26.29,1.92ZM431.01,133.29c-.3,0-.45.14-.45.42v4.4c0,.3.14.45.42.45h2.84c1.08,0,1.86-.26,2.31-.77.45-.51.68-1.13.68-1.86,0-.25-.04-.53-.11-.84-.08-.31-.23-.6-.45-.86-.23-.26-.54-.48-.93-.66-.39-.17-.89-.26-1.5-.26h-2.8Z"></path><path class="cls-1" d="M454.53,148.02c-.3,0-.48-.13-.53-.38l-1.02-3.37c-.08-.2-.2-.3-.38-.3h-5.04c-.23,0-.38.11-.45.34l-1.02,3.29c-.13.28-.28.42-.45.42h-1.86c-.28,0-.46-.08-.55-.23-.09-.15-.11-.33-.06-.53l5-16.06c.1-.33.27-.49.49-.49h2.73c.13,0,.25.03.36.09.12.06.2.21.25.44.83,2.65,1.67,5.33,2.5,8.03.83,2.7,1.68,5.38,2.54,8.03.05.18.06.34.02.49-.04.15-.23.23-.59.23h-1.93ZM449.04,137.53l-.95,3.48c-.05.23.04.34.27.34h3.26c.23,0,.33-.11.3-.34l-.87-3.33-.91-3.48c-.13-.13-.2-.12-.23.04l-.87,3.3Z"></path><path class="cls-1" d="M475.28,135.75c0,.96-.21,1.84-.62,2.63s-1.09,1.52-2.03,2.18c-.05.05-.06.13-.04.23s.06.2.12.3l3.03,5.83c.2.43.23.72.09.87-.14.15-.31.23-.51.23h-1.67c-.33,0-.56-.06-.7-.19-.14-.13-.27-.3-.4-.53v.04l-2.88-5.79c-.1-.2-.21-.33-.32-.38-.11-.05-.23-.08-.36-.08h-2.57v6.32c0,.4-.15.61-.45.61h-2.05c-.3,0-.45-.2-.45-.61v-16.06c0-.18.05-.33.15-.45.1-.13.23-.19.38-.19h5.42c1.97,0,3.44.46,4.41,1.38.97.92,1.46,2.14,1.46,3.65ZM466.42,133.21v5.15c0,.2.15.3.45.3h3.45c.18,0,.33-.02.46-.06.13-.04.21-.08.27-.13.45-.33.78-.74.98-1.25.2-.51.3-.93.3-1.29,0-.3-.04-.62-.13-.95-.09-.33-.25-.62-.49-.89-.24-.27-.57-.48-1-.64s-1-.25-1.71-.25h-2.57Z"></path><path class="cls-1" d="M492.97,133.29h-3.94c-.3,0-.45.14-.45.42v13.97c0,.23-.1.34-.3.34h-2.31c-.23,0-.34-.1-.34-.3v-13.98c0-.3-.14-.45-.42-.45h-3.86c-.23,0-.34-.1-.34-.3v-1.89c0-.23.12-.34.34-.34h11.63c.23,0,.34.1.34.3v1.93c0,.2-.11.3-.34.3Z"></path><path class="cls-1" d="M512.32,147.53c0,.13-.03.24-.09.34s-.17.15-.32.15h-1.51c-.28,0-.46-.02-.55-.08-.09-.05-.2-.2-.32-.45l-6.7-11.13c-.1-.13-.18-.17-.25-.13-.06.04-.09.11-.09.21v11.25c0,.23-.1.34-.3.34h-2.16c-.23,0-.34-.1-.34-.3v-16.55c0-.1.04-.2.11-.3s.2-.15.38-.15h1.44c.28,0,.47.06.59.19.11.13.22.27.32.42,1.14,1.89,2.25,3.76,3.35,5.58,1.1,1.83,2.21,3.69,3.35,5.59v-.04c.05.13.12.19.21.19s.13-.06.13-.19v-11.4c0-.23.1-.34.3-.34h2.12c.23,0,.34.1.34.3v16.51Z"></path><path class="cls-1" d="M531.22,148.02h-10.76c-.23,0-.34-.1-.34-.3v-16.7c0-.23.11-.34.34-.34h10.6c.25,0,.38.12.38.35v1.92c0,.23-.11.35-.34.35h-7.61c-.3,0-.45.14-.45.41v3.68c0,.28.14.41.42.41h6.21c.23,0,.34.12.34.35v1.96c0,.21-.1.31-.3.31h-6.21c-.3,0-.45.15-.45.45v4.1c0,.3.14.45.42.45h7.76c.23,0,.34.1.34.31v1.96c0,.23-.11.35-.34.35Z"></path><path class="cls-1" d="M550.19,135.75c0,.96-.21,1.84-.62,2.63s-1.09,1.52-2.03,2.18c-.05.05-.06.13-.04.23s.06.2.12.3l3.03,5.83c.2.43.23.72.09.87-.14.15-.31.23-.51.23h-1.67c-.33,0-.56-.06-.7-.19-.14-.13-.27-.3-.4-.53v.04l-2.88-5.79c-.1-.2-.21-.33-.32-.38-.11-.05-.23-.08-.36-.08h-2.57v6.32c0,.4-.15.61-.45.61h-2.05c-.3,0-.45-.2-.45-.61v-16.06c0-.18.05-.33.15-.45.1-.13.23-.19.38-.19h5.42c1.97,0,3.44.46,4.41,1.38.97.92,1.46,2.14,1.46,3.65ZM541.33,133.21v5.15c0,.2.15.3.45.3h3.45c.18,0,.33-.02.46-.06.13-.04.21-.08.27-.13.45-.33.78-.74.98-1.25.2-.51.3-.93.3-1.29,0-.3-.04-.62-.13-.95-.09-.33-.25-.62-.49-.89-.24-.27-.57-.48-1-.64s-1-.25-1.71-.25h-2.57Z"></path></g></g></g></svg>