<?xml version="1.0" encoding="utf-8"?>
<!-- Generator: Adobe Illustrator 27.6.1, SVG Export Plug-In . SVG Version: 6.00 Build 0)  -->
<svg version="1.1" xmlns="http://www.w3.org/2000/svg" xmlns:xlink="http://www.w3.org/1999/xlink" x="0px" y="0px"
	 viewBox="0 0 184.5 33" style="enable-background:new 0 0 184.5 33;" xml:space="preserve">
<style type="text/css">
	.st0{fill:#16BC00;}
	.st1{fill:#414141;}
</style>
<g id="Layer_1">
	<g>
		<polygon class="st0" points="57.6,32.9 79.8,0.1 71.4,0.1 49.2,32.9 		"/>
		<g>
			<polygon class="st1" points="59.4,15.2 49.2,0.1 57.5,0.1 63.6,9 			"/>
			<polygon class="st1" points="79.7,32.9 69.6,17.9 65.4,24 71.4,32.9 			"/>
		</g>
		<rect x="38.8" y="0.1" class="st1" width="7.2" height="32.8"/>
		<rect x="145.3" y="0.1" class="st1" width="7.2" height="32.8"/>
		<path class="st1" d="M142.4,16.5L142.4,16.5c0-2.4-0.4-4.5-1.1-6.5c-0.8-2-1.8-3.7-3.2-5.2c-1.4-1.5-3-2.6-4.9-3.5S129.3,0,127,0
			c-2.2,0-4.3,0.4-6.2,1.3c-1.9,0.9-3.5,2.1-4.9,3.6s-2.4,3.3-3.2,5.2c-0.8,2-1.2,4.1-1.2,6.4v0.1c0,2.3,0.4,4.4,1.2,6.4
			c0.7,2,1.8,3.7,3.2,5.1c1.4,1.5,3,2.7,4.8,3.5c1.9,0.9,3.9,1.3,6.2,1.3s4.3-0.5,6.2-1.3c1.9-0.8,3.5-2.1,4.9-3.6
			c1.4-1.5,2.4-3.2,3.2-5.2C142,20.9,142.4,18.8,142.4,16.5z M135.7,16.6c0,1.4-0.2,2.6-0.6,3.8c-0.5,1.2-1,2.3-1.8,3.2
			c-0.8,0.9-1.7,1.6-2.8,2.1c-1.1,0.5-2.2,0.8-3.5,0.8s-2.5-0.3-3.5-0.8c-1.1-0.5-2-1.2-2.8-2.1c-0.8-0.9-1.4-2-1.8-3.2
			c-0.5-1.2-0.7-2.5-0.7-3.9v-0.1c0-1.4,0.2-2.6,0.7-3.9c0.4-1.2,1-2.2,1.8-3.1c0.7-0.9,1.7-1.6,2.7-2.1c1-0.5,2.2-0.8,3.5-0.8
			c1.3,0,2.4,0.3,3.5,0.8c1.1,0.5,2,1.3,2.8,2.2c0.8,0.9,1.4,2,1.8,3.2C135.5,13.9,135.7,15.1,135.7,16.6L135.7,16.6z"/>
		<polygon class="st1" points="94.4,32.9 81.2,0.1 89.1,0.1 97.7,23.1 106.2,0.1 113.9,0.1 100.8,32.9 		"/>
		<path class="st1" d="M183.7,6.8c-0.6-1.4-1.4-2.6-2.5-3.6c-1.1-1-2.4-1.8-3.9-2.3c-1.5-0.5-3.3-0.8-5.3-0.8h-13.3l0,32.8l7.2,0
			v-9.8h5.4c1.8,0,3.5-0.2,5.2-0.7c1.6-0.5,3-1.2,4.2-2.2c1.2-1,2.1-2.2,2.8-3.6c0.7-1.5,1-3.1,1-5v-0.1
			C184.5,9.8,184.3,8.2,183.7,6.8z M177.3,11.7c0,1.4-0.5,2.6-1.5,3.5c-1,1-2.4,1.5-4.2,1.5h-5.7v-10h5.5c1.8,0,3.2,0.4,4.3,1.3
			C176.8,8.7,177.3,9.9,177.3,11.7L177.3,11.7z"/>
		<polygon class="st1" points="25.2,0.1 16.3,13.2 7.4,0.1 0,0.1 0,32.9 7.1,32.9 7.1,11.9 16.3,25.5 16.3,25.5 16.3,25.5 
			25.5,11.9 25.5,32.9 32.6,32.9 32.6,0.1 		"/>
	</g>
</g>
<g id="Layer_2">
</g>
</svg>
