<svg width="146" height="43" viewBox="0 0 146 43" fill="none" xmlns="http://www.w3.org/2000/svg">
<path d="M33.5436 0.5H-6.10352e-05V33.7799C-6.10352e-05 38.5882 3.92431 42.5 8.75143 42.5H33.5436C38.3707 42.5 42.2951 38.5882 42.2951 33.7799V9.22006C42.2951 4.4118 38.3707 0.5 33.5436 0.5ZM39.7808 32.8909C39.7808 36.8027 36.5652 40.0033 32.6409 40.0033H9.69149C5.76712 40.0033 2.55153 36.8027 2.55153 32.8909V3.03378H32.6409C36.5652 3.03378 39.7808 6.23434 39.7808 10.1461V32.8909Z" fill="white"/>
<path d="M30.9249 5.75287H5.28967V17.5327C8.72909 20.3777 14.5485 22.2447 21.1513 22.2447C27.7541 22.2447 33.5735 20.3777 37.0129 17.5327V11.7836C37.0129 8.46446 34.2748 5.75287 30.9324 5.75287" fill="#008ACC"/>
<path d="M5.28941 17.5328V31.2241C5.28941 34.5432 8.02752 37.2548 11.3699 37.2548H30.9247C34.2671 37.2548 37.0052 34.5432 37.0052 31.2241V17.5328C33.5658 20.3778 27.7464 22.2522 21.1436 22.2522C14.5408 22.2522 8.72137 20.3852 5.28195 17.5328H5.28941Z" fill="#007AC2"/>
<path d="M12.9368 32.8317L12.9965 32.6169C12.9592 32.6465 12.8995 32.6687 12.81 32.6984C12.7503 32.7354 12.8473 32.7799 12.9368 32.8317Z" fill="white"/>
<path d="M13.0561 32.4242L13.071 32.3872L13.0263 32.3427L13.0561 32.4242Z" fill="white"/>
<path d="M12.9966 32.0242C12.9593 32.0909 12.9668 32.1576 12.9817 32.2242C13.0264 32.1724 13.0414 32.1131 12.9966 32.0242Z" fill="white"/>
<path d="M12.8249 32.3056C12.8995 32.2982 12.9816 32.3056 13.0263 32.3501L12.9816 32.2241L12.8249 32.3056Z" fill="white"/>
<path d="M12.8248 32.3056C12.7502 32.3131 12.683 32.3427 12.6382 32.3427L12.8248 32.3056Z" fill="white"/>
<path d="M11.1535 31.8834C11.1088 31.8315 11.5863 31.9353 11.4893 31.8315C11.3774 31.6167 11.2058 31.4166 11.2431 31.2536C11.1535 31.1499 11.7131 31.1425 11.6236 31.0462C11.534 30.8388 11.0043 30.2312 10.967 30.5128C10.9446 30.9499 10.9969 31.2388 11.0118 31.6315C11.1535 31.9797 11.3326 32.3205 11.452 32.6613C11.4594 32.7502 11.4147 32.8243 11.3624 32.9058L11.6385 32.602C11.7952 32.4687 11.2132 32.1649 11.1461 31.8908L11.1535 31.8834Z" fill="white"/>
<path d="M12.1461 33.78C12.161 33.8837 12.2879 33.9134 12.4147 33.8393C12.0864 34.0023 12.0118 34.2023 12.0267 34.4098C12.161 34.4098 12.3103 34.432 12.3849 34.3875C12.3401 34.3431 12.2431 34.2542 12.2431 34.2542C12.6161 34.1282 12.5117 33.9356 12.4072 33.7356L12.1536 33.78H12.1461Z" fill="white"/>
<path d="M12.034 34.5357H12.0415L12.0265 34.4098H11.9818L12.034 34.5357Z" fill="white"/>
<path d="M10.5047 25.5119L10.5122 25.5194L10.6539 25.4305L10.6316 25.386L10.5047 25.5119Z" fill="white"/>
<path d="M25.008 16.9697C25.008 16.9697 25.0007 16.9697 24.9934 16.9697C25.0007 16.9919 25.008 16.9919 25.0007 16.9697H25.008Z" fill="white"/>
<path d="M33.6927 29.9793C33.7076 30.046 33.7747 29.9571 33.8419 29.883L33.6777 29.7867C33.6927 29.8311 33.7001 29.8904 33.7001 29.9793H33.6927Z" fill="white"/>
<path d="M33.4464 29.7052L33.521 29.6978L33.4912 29.6756L33.4464 29.7052Z" fill="white"/>
<path d="M33.1704 29.6831C33.2152 29.7275 33.2749 29.735 33.3345 29.7275C33.3047 29.6757 33.2525 29.6535 33.1704 29.6831Z" fill="white"/>
<path d="M33.3644 29.8904C33.3719 29.8163 33.3943 29.7422 33.4465 29.7052L33.3346 29.7274L33.3644 29.8904Z" fill="white"/>
<path d="M32.6184 31.4314C32.5661 31.4685 32.7601 31.0239 32.6631 31.098C32.4617 31.1647 32.2602 31.3129 32.1259 31.2536C32.0215 31.3277 32.1334 30.7943 32.0364 30.8684C31.8424 30.935 31.2157 31.3722 31.447 31.4388C31.7977 31.5129 32.0588 31.4833 32.3871 31.5203C32.7004 31.4388 33.0212 31.3203 33.3271 31.261C33.4092 31.261 33.454 31.3277 33.5062 31.387L33.3271 31.0758C33.2525 30.9054 32.8646 31.4092 32.6258 31.4314H32.6184Z" fill="white"/>
<path d="M34.864 30.8018C34.864 30.4239 34.6625 30.4906 34.4686 30.5573L34.4387 30.8092C34.5283 30.8092 34.5954 30.6981 34.5581 30.5721C34.6103 30.9055 34.7521 31.0166 34.9311 31.0389C34.9684 30.9129 35.0281 30.7796 35.0132 30.6907C34.961 30.7277 34.8565 30.8018 34.8565 30.8018H34.864Z" fill="white"/>
<path d="M34.9389 31.0314L34.924 31.0685L35.0433 31.0463L35.0508 31.0314H34.9389Z" fill="white"/>
<path d="M32.2976 30.4387C32.1185 30.4165 31.9768 30.3053 31.932 29.9719C31.9619 30.0979 31.9022 30.2164 31.8052 30.209L31.835 29.9571C32.0365 29.8904 32.2305 29.8312 32.2305 30.209C32.2305 30.209 32.3349 30.1349 32.3871 30.0979C32.4095 30.1794 32.3424 30.3201 32.3051 30.4387H32.417C32.4468 30.1942 32.3573 29.8238 32.3573 29.8238C31.9469 29.6682 31.5739 29.4904 31.2233 29.2829C31.1561 29.357 31.0964 29.4533 31.074 29.3792C31.074 29.2903 31.074 29.2236 31.0517 29.1866L30.9024 29.0903L30.8278 29.1051C30.7756 29.1422 30.7532 29.2162 30.7458 29.2903L30.7308 29.4755C30.7308 29.4311 30.7308 29.357 30.7458 29.2903L30.7159 29.1273C30.7159 29.1273 30.6637 29.1273 30.6413 29.1273C30.6637 29.1273 30.6786 29.1273 30.701 29.1199C30.701 29.1199 30.7085 29.1199 30.7159 29.1347L30.8353 29.1125L30.8801 29.0829L30.5369 28.8606H30.4473C30.3354 28.8828 30.216 28.9051 30.2534 28.668L30.1937 28.6235V28.668L30.1862 28.6161L29.9325 28.4383L29.4252 28.0827C28.3359 27.2826 27.187 26.8454 26.0231 26.0972C25.3964 25.6749 24.8219 25.2007 24.2922 24.6673C23.3671 23.7338 22.1584 23.6893 21.3153 22.578C23.2178 22.0668 24.9338 21.326 26.8662 20.1628C27.9181 19.4812 29.5446 18.3625 29.4774 16.0732C29.4327 15.0582 28.9776 14.2506 28.1569 13.4135C27.4332 12.9097 26.605 12.4874 25.9634 12.3466C24.5608 11.9095 23.3969 11.7761 22.0987 11.1242C21.1363 10.6945 19.383 10.9908 18.622 11.0575C18.1445 11.4353 17.9953 12.0651 17.9804 12.6504C17.2418 12.6429 16.5404 12.8208 16.4733 12.8356C14.6752 13.3542 15.6451 13.732 14.5708 14.6507C15.1602 14.021 15.7496 15.236 14.4067 15.7324C12.4221 16.3843 13.7725 17.7846 13.0115 18.8218C12.8324 19.0663 12.8548 19.3775 12.7429 19.696C11.7208 21.2296 12.0267 23.0226 11.3403 24.8525C11.2955 25.0081 11.303 25.1637 11.3328 25.3267C11.0792 25.2674 10.8702 25.3267 10.6763 25.4378C10.7434 25.5489 10.7956 25.6971 10.8926 25.7267C10.9225 25.6601 10.9822 25.5193 10.9822 25.5193C11.1463 25.6378 11.2731 25.6452 11.385 25.6008C11.4597 25.8675 11.5716 26.1342 11.6312 26.3787C11.6312 26.7121 11.303 26.9788 11.2358 27.2307C11.1314 27.6234 11.1985 28.0086 11.3179 28.3865C11.3328 28.0012 11.2806 27.7049 11.3179 27.2752C11.3627 26.9936 11.87 27.6234 11.9521 27.8382C12.0341 27.9419 11.482 27.9271 11.5641 28.0308C11.5193 28.1938 11.6835 28.4013 11.773 28.6161C11.8551 28.7199 11.385 28.5865 11.4298 28.6384C11.4746 28.9199 12.0416 29.2607 11.87 29.3866L11.5716 29.6682C11.5268 29.7274 11.4895 29.7941 11.497 29.8608L11.5865 30.0238C11.7879 30.4164 11.9521 30.8462 12.0789 31.2314H12.1237C12.1237 31.024 12.2132 30.8387 12.5489 30.6906C12.4221 30.7573 12.2953 30.7202 12.2878 30.6091L12.5415 30.5869C12.631 30.7943 12.728 31.0017 12.34 31.0981C12.34 31.0981 12.4296 31.1944 12.4743 31.2462C12.3922 31.2907 12.243 31.2462 12.1162 31.2388V31.3648C12.3848 31.3277 12.7504 31.1351 12.7504 31.1351C12.8548 30.6313 12.9817 30.1571 13.1383 29.7126C13.0563 29.6534 12.9518 29.6015 13.019 29.5719C13.1085 29.557 13.1682 29.5348 13.2129 29.5052L13.2875 29.3126L13.2652 29.2311C13.2204 29.1792 13.1458 29.1718 13.0712 29.1792L12.8847 29.2088C12.9294 29.2088 12.9966 29.1866 13.0712 29.1792L13.2279 29.1051C13.2279 29.1051 13.2279 29.0458 13.2279 29.0236C13.2279 29.0458 13.2353 29.0681 13.2428 29.0903C13.2428 29.0903 13.2428 29.1051 13.2279 29.1125L13.2652 29.2459L13.3025 29.2903L13.489 28.8532L13.4741 28.7495C13.4442 28.6235 13.4069 28.4976 13.6606 28.4902L13.6979 28.4087H13.6531L13.7053 28.3939L13.862 28.0679L14.1754 27.4159C14.7349 26.2898 15.1005 25.1785 15.5482 24.0079C16.1003 23.8301 16.6449 23.6819 17.1746 23.5486C17.197 23.4449 17.197 23.3263 17.2791 23.3559C17.3537 23.4226 17.4208 23.4597 17.4805 23.4745L17.7267 23.4152C17.6819 23.6004 17.6521 23.7264 17.6521 23.7486C17.376 25.5489 18.055 24.7636 18.4579 26.0601C18.1445 25.2822 19.3084 25.1785 19.3457 26.5195C19.3606 28.5346 21.0094 27.6308 21.7481 28.4606C21.9346 28.668 22.2106 28.6976 22.4718 28.8458C23.6506 30.0312 25.2919 29.8904 26.7468 30.6683C27.1497 30.8313 27.6794 30.572 28.1121 30.4905C28.3882 30.5202 28.5598 30.8536 28.7612 30.9351C29.0746 31.0684 29.4177 31.024 29.7609 30.9351C29.4401 30.8906 29.1715 30.9202 28.8209 30.8462C28.5971 30.7795 29.2163 30.3424 29.4177 30.2757C29.5222 30.2016 29.4028 30.735 29.5073 30.6609C29.6416 30.7128 29.8505 30.572 30.0445 30.5054C30.1489 30.4313 29.9475 30.8758 29.9997 30.8387C30.2384 30.8239 30.6339 30.3127 30.7085 30.4905L30.8801 30.8017C30.9174 30.8536 30.9621 30.8906 31.0293 30.898L31.186 30.8313C31.5515 30.6758 31.9469 30.572 32.3051 30.4905L32.32 30.4535L32.2976 30.4387ZM13.7053 27.5345C13.6531 27.4011 13.7725 27.2826 14.0336 27.2307C14.1903 27.4307 13.9739 27.49 13.7053 27.5345ZM15.675 23.6301C15.675 23.6301 15.6974 23.5782 15.7048 23.556L15.7272 23.5782C15.7272 23.5782 15.6974 23.6078 15.675 23.6301ZM17.3686 21.4519C17.0776 21.6593 17.0254 22.3335 16.7717 22.2743L16.3241 22.215C16.5927 21.7186 16.8687 21.2296 17.1597 20.7333C18.1296 19.1922 17.7491 17.5549 19.189 15.8954C19.3233 15.725 19.4054 15.4953 19.4501 15.2508C19.8306 15.3175 20.2858 15.3768 20.905 15.8065C19.9202 15.236 21.6287 14.6359 22.4718 15.8731C22.9343 16.6585 23.6282 16.8955 24.2027 16.9548C23.6133 17.5401 22.703 18.4217 21.4646 18.7181C20.8677 18.9774 20.5021 19.622 20.047 20.0517C19.6814 20.2739 19.1816 20.2221 18.8533 20.3332C18.3385 20.511 17.958 20.8296 17.5924 21.1778C18.0475 20.9333 18.346 20.6814 18.8533 20.4295C19.1965 20.2813 18.816 21.0963 18.6295 21.3111C18.5623 21.4519 18.2266 21 18.1669 21.1333C17.9505 21.2148 17.8162 21.4815 17.6223 21.6964C17.5551 21.8297 17.4134 21.3704 17.376 21.4371L17.3686 21.4519ZM17.7864 23.1189L17.6372 22.9855C17.6372 22.9855 17.7342 23.067 17.7864 23.1189C17.7864 23.1189 17.7864 23.1189 17.7939 23.1189C17.7939 23.1189 17.7939 23.1189 17.7939 23.1115L17.7864 23.1189ZM29.2536 28.1938C29.4476 28.0531 29.47 28.2753 29.455 28.5346C29.3282 28.5791 29.2536 28.4457 29.2536 28.1938Z" fill="white"/>
<path d="M48.6366 26.1639V16.8363H56.6719C57.4179 16.8363 57.9626 16.9771 58.2909 17.266C58.6191 17.555 58.7907 18.0143 58.7907 18.6441V20.8296C58.7907 21.4594 58.6266 21.9187 58.2909 22.2077C57.9551 22.4966 57.4179 22.6374 56.6719 22.6374H55.4483L59.783 26.1565H56.642L52.8519 22.6374H50.7779V26.1565H48.6292L48.6366 26.1639ZM55.702 18.4514H50.7853V21.0445H55.702C56.0825 21.0445 56.3436 20.9926 56.4779 20.8815C56.6122 20.7704 56.6868 20.5777 56.6868 20.3036V19.1849C56.6868 18.9108 56.6196 18.7256 56.4779 18.6144C56.3361 18.5033 56.0825 18.4514 55.702 18.4514Z" fill="white"/>
<path d="M71.3773 18.4662H65.2221V20.4665H71.0788C71.9965 20.4665 72.6157 20.6221 72.944 20.9333C73.2648 21.2444 73.429 21.8223 73.429 22.6743V23.956C73.429 24.8006 73.2648 25.3859 72.944 25.6971C72.6232 26.0082 71.9965 26.1638 71.0788 26.1638H65.2743C64.3567 26.1638 63.7374 26.0082 63.4091 25.6971C63.0883 25.3859 62.9242 24.808 62.9242 23.956V23.6967L64.8565 23.2966V24.4005H71.4966V22.2742H65.6399C64.7297 22.2742 64.1105 22.1187 63.7896 21.8075C63.4688 21.4963 63.3122 20.9185 63.3122 20.0664V19.0366C63.3122 18.192 63.4688 17.6068 63.7896 17.2956C64.1105 16.9844 64.7222 16.8288 65.6399 16.8288H70.9744C71.8547 16.8288 72.4665 16.977 72.8023 17.2808C73.138 17.5845 73.3021 18.1105 73.3021 18.8811V19.0737L71.3698 19.5256V18.4662H71.3773Z" fill="white"/>
<path d="M77.9652 26.1639V16.8363H87.5822V18.4218H80.1512V20.5036H84.4859V22.0891H80.1512V24.4006H87.6717V26.1565H77.9652V26.1639Z" fill="white"/>
<path d="M99.5936 18.5033H93.6996V24.408H99.5936V22.4077L101.78 22.8596V23.9635C101.78 24.8155 101.616 25.4008 101.295 25.7046C100.974 26.0157 100.355 26.1713 99.4519 26.1713H93.8414C92.9312 26.1713 92.3119 26.0157 91.9911 25.7046C91.6703 25.3934 91.5136 24.8155 91.5136 23.9635V19.0441C91.5136 18.1995 91.6703 17.6142 91.9911 17.3031C92.3119 16.9919 92.9237 16.8363 93.8414 16.8363H99.4519C100.362 16.8363 100.974 16.9919 101.295 17.3031C101.616 17.6142 101.78 18.1921 101.78 19.0441V19.9258L99.5936 20.2666V18.5033Z" fill="white"/>
<path d="M108.472 16.8363V24.408H114.702V16.8363H116.88V23.9635C116.88 24.8155 116.724 25.4008 116.403 25.7046C116.082 26.0157 115.463 26.1713 114.553 26.1713H108.614C107.704 26.1713 107.092 26.0157 106.771 25.7046C106.45 25.3934 106.286 24.8155 106.286 23.9635V16.8363H108.472Z" fill="white"/>
<path d="M121.693 26.1639V16.8363H129.728C130.474 16.8363 131.019 16.9771 131.347 17.266C131.675 17.555 131.847 18.0143 131.847 18.6441V20.8296C131.847 21.4594 131.683 21.9187 131.347 22.2077C131.011 22.4966 130.474 22.6374 129.728 22.6374H128.504L132.839 26.1565H129.698L125.908 22.6374H123.834V26.1565H121.685L121.693 26.1639ZM128.758 18.4514H123.841V21.0445H128.758C129.139 21.0445 129.4 20.9926 129.534 20.8815C129.668 20.7704 129.743 20.5777 129.743 20.3036V19.1849C129.743 18.9108 129.676 18.7256 129.534 18.6144C129.392 18.5033 129.139 18.4514 128.758 18.4514Z" fill="white"/>
<path d="M136.286 26.1639V16.8363H145.903V18.4218H138.472V20.5036H142.807V22.0891H138.472V24.4006H145.992V26.1565H136.286V26.1639Z" fill="white"/>
</svg>
